<svg xmlns="http://www.w3.org/2000/svg" xmlns:xlink="http://www.w3.org/1999/xlink" width="88px" height="76px">
  <style>
    .hexagon {
      stroke: #000;
      stroke-width: 1px;
      fill: white;
    }

    g:hover .hexagon {
      stroke: #ff0033;
      fill: #ff0033;
    }

    g:hover .heart {
      fill: white;
    }
  </style>

  <g>
    <path class="hexagon" d="M 22 76 L 0 38 L 22 0 L 66 0 L 88 38 L 66 76 L 22 76 Z" />

    <path class="heart"
      d="M 42.4 32.7 c 0 0 2 -1.7 3.2 -2.4 c 0.8 -0.4 1.7 -0.9 2.7 -1 c 1.3 -0.1 2.7 0.2 3.8 1 c 1.2 0.9 2.1 2.3 2.5 3.8 c 0.3 1.1 0.1 2.3 -0.3 3.4 c -0.3 0.9 -0.8 1.6 -1.4 2.4 c -2.9 3.8 -9.9 10.3 -9.9 10.3 c 0 0 -8.1 -6.1 -10.9 -10.2 C 31.3 38.9 30.9 37.6 30.7 36.3 C 30.5 35.4 30.5 34.4 30.8 33.5 C 31.2 32.4 32 31.3 33 30.6 C 33.9 29.9 35 29.5 36.1 29.5 C 37.2 29.4 38.3 29.7 39.3 30.2 C 40.5 30.7 42.4 32.7 42.4 32.7 Z" />
  </g>

</svg>