<svg xmlns="http://www.w3.org/2000/svg" xmlns:xlink="http://www.w3.org/1999/xlink" width="88px" height="76px">
  <style>
    .hexagon {
      stroke: #000;
      stroke-width: 1px;
      fill: white;
    }

    .heart {
      transform: translate(30px, 30px);
    }

    g:hover .hexagon {
      stroke: #ff0033;
      fill: #ff0033;
    }

    g:hover .heart {
      fill: white;
    }
  </style>

  <g>
    <path class="hexagon" d="M 22 76 L 0 38 L 22 0 L 66 0 L 88 38 L 66 76 L 22 76 Z" />
    <path class="heart"
      d="m 12.019151,3.4939394 c 0,0 2.041806,-1.7432462 3.214425,-2.3758788 0.83018,-0.44788528 1.713265,-0.93148017 2.655394,-0.97830302 1.297801,-0.0644994 2.714566,0.22517319 3.773454,0.97830302 1.231897,0.876182 2.138075,2.3096538 2.515637,3.7734545 0.280213,1.0863799 0.06,2.2848492 -0.279516,3.3541818 -0.278046,0.8757367 -0.842824,1.6434341 -1.397575,2.3758791 -2.88449,3.808432 -9.922788,10.34206 -9.922788,10.34206 0,0 -8.120451,-6.074711 -10.901091,-10.202303 C 0.95202803,9.685047 0.48448354,8.4090791 0.27951515,7.1276363 0.13217258,6.2064646 0.09893634,5.2086422 0.41927273,4.3324848 0.84160132,3.1773669 1.6646844,2.1263785 2.655394,1.3975758 3.5338504,0.75135062 4.6419864,0.35291359 5.7300606,0.27951515 6.8240752,0.20571599 7.9570938,0.50146648 8.9444848,0.97830303 10.136934,1.5541675 12.019151,3.4939394 12.019151,3.4939394 Z" />
  </g>

</svg>