<svg xmlns="http://www.w3.org/2000/svg" xmlns:xlink="http://www.w3.org/1999/xlink" width="88px" height="76px">
  <style>
    .hexagon {
      stroke: #000;
      stroke-width: 1px;
      fill: white;
    }

    .screen,
    .button {
      fill: white;
    }

    .mobile {
      fill: #000;
    }

    .container:hover .hexagon {
      stroke: #ff0033;
      fill: #ff0033;
    }

    .container:hover .mobile {
      fill: white;
    }

    .container:hover .screen {
      fill: #000;
    }

    .container:hover .button {
      fill: #000;
    }
  </style>

  <g class="container">
    <path class="hexagon" d="M 22.1 76 L 0.1 38 L 22.1 0 L 66.1 0 L 88.1 38 L 66.1 76 L 22.1 76 Z" />

    <g class="icon">
      <path class="mobile"
        d="M 32.6 22.3 L 53.6 22.1 c 1.4 0.1 1.4 0.9 1.8 2.1 l 0.1 26.1 c -0.1 1.5 -1.3 1.8 -2.4 2.2 H 32.4 C 31.3 52 30.6 51.8 30.4 50.5 L 30.6 24.9 C 30.8 22.8 31.6 22.8 32.6 22.3 Z" />

      <path class="button"
        d="M 42.6 49.2 C 41.7 49.2 41 50 41 50.9 C 41 51.8 41.7 52.6 42.6 52.6 C 43 52.6 43.4 52.4 43.7 52.1 C 44 51.8 44.2 51.3 44.2 50.9 C 44.2 50.5 44 50 43.7 49.7 C 43.4 49.4 43 49.2 42.6 49.2 z" />

      <path class="screen" d="M 33 25.1 L 52.9 25 L 52.9 48.3 L 33 48.2 Z" />

    </g>
  </g>

</svg>