<svg xmlns="http://www.w3.org/2000/svg" xmlns:xlink="http://www.w3.org/1999/xlink" width="88px" height="76px">
  <style>
    .hexagon {
      stroke: #000;
      stroke-width: 1px;
      fill: white;
    }

    .screen,
    .button {
      fill: white;
    }

    .mobile {
      fill: #000;
    }

    .container:hover .hexagon {
      stroke: #ff0033;
      fill: #ff0033;
    }

    .container:hover .mobile {
      fill: white;
    }

    .container:hover .screen,
    .container:hover .button {
      fill: #ff0033;
    }
  </style>

  <g class="container">
    <path class="hexagon" d="M 22.4 76.3 L 0.4 38.3 L 22.4 0.3 L 66.4 0.3 L 88.4 38.3 L 66.4 76.3 L 22.4 76.3 Z" />

    <g class="icon">
      <path class="mobile"
        d="M 32.6 22.3 L 53.6 22.1 c 1.4 0.1 1.4 0.9 1.8 2.1 l 0.1 26.1 c -0.1 1.5 -1.3 1.8 -2.4 2.2 H 32.4 C 31.3 52 30.6 51.8 30.4 50.5 L 30.6 24.9 C 30.8 22.8 31.6 22.8 32.6 22.3 Z" />

      <path class="button"
        d="M 42.7 48.7 C 41.8 48.7 41.1 49.5 41.1 50.4 C 41.1 51.3 41.8 52.1 42.7 52.1 C 43.1 52.1 43.5 51.9 43.8 51.6 C 44.1 51.3 44.3 50.8 44.3 50.4 C 44.3 50 44.1 49.5 43.8 49.2 C 43.5 48.9 43.1 48.7 42.7 48.7 z" />

      <path class="screen" d="M 33 25.1 L 52.9 25 L 52.9 48.3 L 33 48.2 Z" />

    </g>
  </g>

</svg>