<svg xmlns="http://www.w3.org/2000/svg" xmlns:xlink="http://www.w3.org/1999/xlink" width="18px" height="18px">
  <path fill-rule="evenodd" fill="rgb(255, 0, 54)"
    d="M8.999,18.001 C4.036,18.001 -0.001,13.963 -0.001,8.999 C-0.001,4.037 4.036,-0.002 8.999,-0.002 C13.963,-0.002 18.001,4.037 18.001,8.999 C18.001,13.963 13.963,18.001 8.999,18.001 ZM8.999,0.824 C4.492,0.824 0.824,4.491 0.824,8.999 C0.824,13.508 4.492,17.174 8.999,17.174 C13.508,17.174 17.175,13.508 17.175,8.999 C17.175,4.491 13.508,0.824 8.999,0.824 ZM4.064,7.900 L13.935,7.900 L13.935,10.099 L4.064,10.099 L4.064,7.900 Z" />
</svg>