<svg xmlns="http://www.w3.org/2000/svg" xmlns:xlink="http://www.w3.org/1999/xlink" width="18px" height="18px">
  <path fill-rule="evenodd" fill="rgb(80, 80, 80)"
    d="M8.999,18.001 C4.036,18.001 -0.002,13.963 -0.002,9.000 C-0.002,4.036 4.036,-0.002 8.999,-0.002 C13.963,-0.002 18.002,4.036 18.002,9.000 C18.002,13.963 13.963,18.001 8.999,18.001 ZM8.999,0.823 C4.491,0.823 0.824,4.491 0.824,9.000 C0.824,13.507 4.491,17.175 8.999,17.175 C13.508,17.175 17.176,13.507 17.176,9.000 C17.176,4.491 13.508,0.823 8.999,0.823 ZM10.099,13.936 L7.900,13.936 L7.900,10.099 L4.064,10.099 L4.064,7.900 L7.900,7.900 L7.900,4.064 L10.099,4.064 L10.099,7.900 L13.934,7.900 L13.934,10.099 L10.099,10.099 L10.099,13.936 Z" />
</svg>