<svg xmlns="http://www.w3.org/2000/svg" xmlns:xlink="http://www.w3.org/1999/xlink" width="88px" height="76px">
  <style>
    .hexagon {
      stroke: #000;
      stroke-width: 1px;
      fill: white;
    }

    .container:hover .hexagon {
      stroke: #ff0033;
      fill: #ff0033;
    }

    .container:hover .icon {
      fill: white;
    }

  </style>

  <g class="container">
    <path class="hexagon" d="M 22.1 76 L 0.1 38 L 22.1 0 L 66.1 0 L 88.1 38 L 66.1 76 L 22.1 76 Z" />

    <g class="icon">
      <path
        d="M 44.1 15.1 c 2.9 1.4 5.7 3 7.6 5.6 c 1.2 1.4 2.2 2.7 2.5 4 c 0.2 3.2 0.3 4.4 -0.8 7.5 c -1.1 1.5 -2 2.9 -3.4 4.5 c -1.4 1.5 -3.7 3 -4.8 4.9 c -1.5 2.1 0 4.7 1 6.9 l -6.6 -4.1 c -2 -1.8 -3.2 -3.6 -3.9 -5.6 c -1.4 -3 -0.8 -5.2 -0.3 -7.5 c 0.8 -1.2 0.7 -1.9 3.4 -4.3 c 2.2 -1.5 4.4 -3 5.4 -4.7 c 0.4 -1 0.8 -1.9 1 -2.3 c 0.3 -1.7 -0.2 -3.3 -1 -5 z" />
      <rect width="31" height="2" x="29.3" y="55"/>


    </g>
  </g>

</svg>