<svg xmlns="http://www.w3.org/2000/svg" xmlns:xlink="http://www.w3.org/1999/xlink" width="76px" height="68px">
  <style>
    .hexagon {
      fill: transparent;
      stroke: #ff0033;
    }

    .text {
      fill: #ff0033;
    }

    g {
      cursor: pointer;
    }

    g:hover .hexagon {
      fill: #ff0033;
    }

    g:hover .text {
      fill: #fff;
    }
  </style>
  <g>
    <path class="hexagon" d="M 19.3 68 L 0.6 34 L 19.3 0 L 56.8 0 L 75.6 34 L 56.8 68 L 19.3 68 Z" />
    <g class="text">
      <path
        d="M 33.1 34.4 v 3.5 h 5.8 c -0.2 1.5 -1.7 4.4 -5.8 4.4 c -3.5 0 -6.3 -2.9 -6.3 -6.4 s 2.8 -6.4 6.3 -6.4 c 2 0 3.3 0.8 4.1 1.6 l 2.8 -2.7 c -1.8 -1.7 -4.1 -2.7 -6.8 -2.7 c -5.6 0 -10.2 4.6 -10.2 10.2 s 4.6 10.2 10.2 10.2 c 5.9 0 9.8 -4.1 9.8 -10 c 0 -0.7 -0.1 -1.2 -0.2 -1.7 h -9.6 z">
      </path>
      <path d="M 55 34.1 h -3 v -3 h -3 v 3 h -3 v 3 h 3 v 3 h 3 v -3 h 3 z"></path>
    </g>
  </g>

</svg>