<svg xmlns="http://www.w3.org/2000/svg" xmlns:xlink="http://www.w3.org/1999/xlink" width="76px" height="68px">
  <style>
    .hexagon {
      fill: transparent;
      stroke: #ff0033;
    }

    .text {
      fill: #ff0033;
    }

    g {
      cursor: pointer;
    }

    g:hover .hexagon {
      fill: #ff0033;
    }

    g:hover .text {
      fill: #fff;
    }
  </style>
  <g>
    <path class="hexagon" d="M 19.3 68 L 0.6 34 L 19.3 0 L 56.8 0 L 75.6 34 L 56.8 68 L 19.3 68 Z" />
    <path class="text"
      d="M 37.4 19.2 c -8.8 0 -16 7.2 -16 16 s 7.2 16 16 16 s 16 -7.2 16 -16 s -7.2 -16 -16 -16 z M 37.4 49 c -1.4 0 -2.8 -0.2 -4.1 -0.6 c 0.6 -0.9 1.4 -2.4 1.7 -3.6 c 0.2 -0.7 0.9 -3.3 0.9 -3.3 c 0.4 0.9 1.8 1.6 3.2 1.6 c 4.2 0 7.2 -3.8 7.2 -8.6 c 0 -4.6 -3.7 -8 -8.5 -8 c -6 0 -9.2 4 -9.2 8.4 c 0 2 1.1 4.6 2.8 5.4 c 0.3 0.1 0.4 0.1 0.5 -0.2 c 0 -0.2 0.3 -1.1 0.4 -1.6 c 0 -0.1 0 -0.3 -0.1 -0.4 c -0.6 -0.7 -1 -2 -1 -3.2 c 0 -3.1 2.3 -6 6.3 -6 c 3.4 0 5.8 2.3 5.8 5.6 c 0 3.8 -1.9 6.3 -4.4 6.3 c -1.4 0 -2.4 -1.1 -2.1 -2.5 c 0.4 -1.6 1.1 -3.4 1.1 -4.6 c 0 -1.1 -0.6 -1.9 -1.8 -1.9 c -1.4 0 -2.5 1.4 -2.5 3.4 c 0 1.2 0.4 2.1 0.4 2.1 s -1.4 5.8 -1.6 6.9 c -0.3 1.2 -0.2 2.9 0 4 c -5.2 -2 -8.8 -7 -8.8 -12.9 c 0 -7.7 6.2 -13.9 13.9 -13.9 s 13.9 6.2 13.9 13.9 c 0 7.7 -6.2 13.9 -13.9 13.9 z">
    </path>
  </g>

</svg>