<svg xmlns="http://www.w3.org/2000/svg" xmlns:xlink="http://www.w3.org/1999/xlink" width="76px" height="68px">
  <style>
    .hexagon {
      fill: transparent;
      stroke: #ff0033;
    }

    .text {
      fill: #ff0033;
    }

    g {
      cursor: pointer;
    }

    g:hover .hexagon {
      fill: #ff0033;
    }

    g:hover .text {
      fill: #fff;
    }
  </style>
  <g>
    <path class="hexagon" d="M 19.3 68 L 0.6 34 L 19.3 0 L 56.8 0 L 75.6 34 L 56.8 68 L 19.3 68 Z" />
    <path class="text"
      d="M 54.5 23.7 c -1.2 0.5 -2.4 0.9 -3.8 1 c 1.4 -0.8 2.4 -2.1 2.9 -3.6 c -1.3 0.8 -2.7 1.3 -4.2 1.6 c -1.2 -1.3 -2.9 -2.1 -4.8 -2.1 c -3.6 0 -6.6 2.9 -6.6 6.6 c 0 0.5 0.1 1 0.2 1.5 c -5.5 -0.3 -10.3 -2.9 -13.5 -6.9 c -0.6 1 -0.9 2.1 -0.9 3.3 c 0 2.3 1.2 4.3 2.9 5.5 c -1.1 0 -2.1 -0.3 -3 -0.8 c 0 0 0 0.1 0 0.1 c 0 3.2 2.3 5.8 5.3 6.4 c -0.6 0.1 -1.1 0.2 -1.7 0.2 c -0.4 0 -0.8 0 -1.2 -0.1 c 0.8 2.6 3.3 4.5 6.1 4.6 c -2.2 1.8 -5.1 2.8 -8.2 2.8 c -0.5 0 -1 0 -1.6 -0.1 c 2.9 1.9 6.4 3 10.1 3 c 12.1 0 18.7 -10 18.7 -18.7 c 0 -0.3 0 -0.6 0 -0.9 c 1.3 -0.9 2.4 -2.1 3.3 -3.4 z" />
  </g>

</svg>