<svg xmlns="http://www.w3.org/2000/svg" width="23" height="24" viewBox="0 0 23 24">
  <style>
    path {
      fill: white;
    }
    path:hover {
      fill: red;
      cursor: pointer;
    }
  </style>
  <path id="icon" d="M 8 1.2 l 0 7.4 l -6.7 0 c -0.6 0.1 -1.2 0 -1.2 0.9 l 0.1 5.2 c 0.3 0.8 0.7 0.7 1.1 0.7 l 6.6 0 l 0.1 7.6 c 0.2 0.9 0.8 0.6 1.3 0.8 h 4.7 c 0.8 -0.1 1.2 -0.4 1.3 -0.8 v -7.8 l 6.8 -0.1 c 0.6 -0.1 0.9 -0.6 1 -1.2 l 0 -4.2 C 22.7 9.3 22.9 8.8 21.8 8.5 l -6.7 0 l -0.1 -7.4 C 14.7 0.3 14.3 0.4 13.9 0.2 L 8.8 0.3 C 8.4 0.4 8.1 0.7 8 1.2 Z" />
</svg>